<svg width="40" height="42" viewBox="0 0 40 42" fill="none" xmlns="http://www.w3.org/2000/svg">
<path d="M14.4943 22.6353L10.4983 26.0558V12.3737C10.4983 12.1469 10.5834 11.9294 10.7348 11.769C10.8863 11.6086 11.0917 11.5186 11.3059 11.5186H24.2279C24.4421 11.5186 24.6475 11.6086 24.799 11.769C24.9504 11.9294 25.0355 12.1469 25.0355 12.3737V21.7801C25.0355 22.0069 24.9504 22.2244 24.799 22.3848C24.6475 22.5452 24.4421 22.6353 24.2279 22.6353H14.4943Z" stroke="#CCCFD0" stroke-width="1.7" stroke-linecap="round" stroke-linejoin="round"/>
<path d="M15.344 22.6353V26.911C15.344 27.1378 15.4291 27.3553 15.5805 27.5157C15.732 27.676 15.9374 27.7661 16.1516 27.7661H25.8852L29.8812 31.1866V17.5045C29.8812 17.2778 29.7961 17.0602 29.6447 16.8999C29.4932 16.7395 29.2878 16.6494 29.0736 16.6494H25.0355" stroke="#CCCFD0" stroke-width="1.7" stroke-linecap="round" stroke-linejoin="round"/>
</svg>
