<svg width="98" height="98" viewBox="0 0 98 98" fill="none" xmlns="http://www.w3.org/2000/svg">
<path d="M22.1071 59.2724L18.7144 71.9378L6.3142 72.2001C2.60836 65.3266 0.506348 57.4625 0.506348 49.1054C0.506348 41.0242 2.47168 33.4035 5.95536 26.6934H5.95802L16.9977 28.7173L21.8337 39.6907C20.8215 42.6416 20.2699 45.8093 20.2699 49.1054C20.2702 52.6828 20.9182 56.1103 22.1071 59.2724Z" fill="#FBBB00"/>
<path d="M97.1219 40.002C97.6815 42.9499 97.9734 45.9945 97.9734 49.106C97.9734 52.595 97.6065 55.9983 96.9077 59.2812C94.5354 70.4524 88.3365 80.2071 79.7493 87.1101L79.7467 87.1074L65.8416 86.3979L63.8737 74.1127C69.5717 70.771 74.0247 65.5415 76.3704 59.2812H50.3113V40.002H76.7505H97.1219Z" fill="#518EF8"/>
<path d="M79.7464 87.1067L79.7491 87.1094C71.3976 93.8222 60.7885 97.8387 49.2398 97.8387C30.6809 97.8387 14.5454 87.4655 6.31421 72.2002L22.1071 59.2725C26.2226 70.2561 36.8181 78.075 49.2398 78.075C54.579 78.075 59.581 76.6317 63.8732 74.112L79.7464 87.1067Z" fill="#28B446"/>
<path d="M80.3462 11.5914L64.5587 24.5165C60.1165 21.7398 54.8655 20.1358 49.2398 20.1358C36.5369 20.1358 25.7432 28.3133 21.8339 39.6908L5.95799 26.6935H5.95532C14.066 11.0559 30.4051 0.37207 49.2398 0.37207C61.0643 0.37207 71.9062 4.58409 80.3462 11.5914Z" fill="#F14336"/>
</svg>
