<svg width="30" height="31" viewBox="0 0 30 31" fill="none" xmlns="http://www.w3.org/2000/svg">
<path d="M22.0638 6.00293H8.26912C6.95488 6.00293 5.88647 7.01037 5.88647 8.46773V22.7381C5.88647 24.1955 6.95488 25.2029 8.26912 25.2029H22.0638C23.3781 25.2029 24.4465 24.1955 24.4465 22.7381V8.46773C24.4465 7.01037 23.3781 6.00293 22.0638 6.00293ZM18.575 9.00568C18.575 8.52641 18.9532 8.14496 19.407 8.14496H21.506C21.9693 8.14496 22.338 8.5362 22.338 9.00568V11.0792C22.338 11.5585 21.9598 11.94 21.506 11.94H19.407C18.9437 11.94 18.575 11.5487 18.575 11.0792V9.00568ZM15.1901 11.8324C17.2513 11.8324 18.9153 13.5049 18.9153 15.5687C18.9153 17.6325 17.2418 19.305 15.1901 19.305C13.1289 19.305 11.4649 17.6325 11.4649 15.5687C11.4649 13.5049 13.1289 11.8324 15.1901 11.8324ZM22.3475 22.2393C22.3475 22.6599 22.0166 23.0022 21.61 23.0022H8.68513C8.27857 23.0022 7.94765 22.6599 7.94765 22.2393V14.1211H9.64953C9.49825 14.6395 9.41315 15.197 9.41315 15.7643C9.41315 18.9627 11.9944 21.5449 15.1807 21.5449C18.367 21.5449 20.9482 18.9529 20.9482 15.7643C20.9482 15.197 20.8631 14.6395 20.7118 14.1211H22.3475V22.2393V22.2393Z" fill="#C8F3F9"/>
</svg>
