<svg width="40" height="42" viewBox="0 0 40 42" fill="none" xmlns="http://www.w3.org/2000/svg">
<path d="M10.4873 18.3604H15.3331V29.4771H10.4873C10.2731 29.4771 10.0677 29.387 9.91624 29.2266C9.76478 29.0662 9.67969 28.8487 9.67969 28.6219V19.2155C9.67969 18.9887 9.76478 18.7712 9.91624 18.6108C10.0677 18.4504 10.2731 18.3604 10.4873 18.3604V18.3604Z" stroke="#CCCFD0" stroke-width="1.7" stroke-linecap="round" stroke-linejoin="round"/>
<path d="M15.333 18.3599L19.3711 9.80859C19.7954 9.80859 20.2154 9.89707 20.6074 10.069C20.9993 10.2409 21.3555 10.4928 21.6554 10.8104C21.9554 11.1281 22.1934 11.5051 22.3557 11.9201C22.5181 12.3351 22.6016 12.7799 22.6016 13.2291V15.7945H28.8481C29.0772 15.7945 29.3036 15.8461 29.5124 15.9458C29.7211 16.0455 29.9075 16.1911 30.0591 16.3729C30.2106 16.5547 30.324 16.7686 30.3915 17.0003C30.4591 17.232 30.4793 17.4763 30.4509 17.7169L29.2395 27.9785C29.1906 28.3921 29.0008 28.7726 28.7057 29.0485C28.4105 29.3244 28.0304 29.4766 27.6367 29.4766H15.333" stroke="#CCCFD0" stroke-width="1.7" stroke-linecap="round" stroke-linejoin="round"/>
</svg>
