<svg width="30" height="31" viewBox="0 0 30 31" fill="none" xmlns="http://www.w3.org/2000/svg">
<path d="M23.9413 25.035L23.9507 18.0572C23.9507 14.6407 23.2416 12.0156 19.3792 12.0156C17.5227 12.0156 16.2819 13.0676 15.7688 14.0713H15.7128V12.3245H12.0557V25.0253H15.8621V18.7425C15.8621 17.0825 16.1699 15.4804 18.1478 15.4804C20.0976 15.4804 20.1349 17.372 20.1349 18.8486V25.035H23.9413Z" fill="#C8F3F9"/>
<path d="M9.67657 12.3242H5.86084V25.0251H9.67657V12.3242Z" fill="#C8F3F9"/>
<path d="M7.76404 6.00293C6.54189 6.00293 5.55298 7.02595 5.55298 8.29025C5.55298 9.55454 6.54189 10.5969 7.76404 10.5969C8.9862 10.5969 9.97511 9.55454 9.97511 8.29025C9.97511 7.02595 8.9862 6.00293 7.76404 6.00293Z" fill="#C8F3F9"/>
</svg>
