<svg width="31" height="31" viewBox="0 0 31 31" fill="none" xmlns="http://www.w3.org/2000/svg">
<path d="M24.2909 12.2859L23.1823 11.2224V8.82509C23.1823 7.28124 21.9279 6.02686 20.384 6.02686C18.9774 6.02686 17.8131 7.0711 17.618 8.42412H14.3887C13.9685 8.42412 13.5568 8.59566 13.2587 8.89156L6.06266 16.0876C5.76675 16.3857 5.59521 16.7974 5.59521 17.2198C5.59521 17.6422 5.76675 18.0518 6.06266 18.3498L10.8593 23.1465C11.1574 23.4445 11.5691 23.6139 11.9893 23.6139C12.4096 23.6139 12.8213 23.4424 13.1194 23.1465L14.3866 21.8792V23.6161C14.3866 24.0363 14.5646 24.4502 14.8755 24.7504C15.18 25.0463 15.6045 25.2157 16.042 25.2157H23.1244C23.5597 25.2157 23.9842 25.0463 24.2909 24.7504C24.6018 24.4502 24.7797 24.0363 24.7797 23.6161V13.4223C24.7819 13.0021 24.6039 12.5882 24.2909 12.2859ZM20.384 6.82666C21.4862 6.82666 22.3825 7.72295 22.3825 8.82509V10.4569L20.7507 8.89156C20.3926 8.54205 19.8887 8.38338 19.3956 8.4477C19.3269 8.43484 19.2583 8.42841 19.1854 8.42841H18.4264C18.6129 7.51496 19.4191 6.82666 20.384 6.82666ZM17.9868 9.99799C18.6622 9.99799 19.2111 10.5469 19.2111 11.2224C19.2111 11.8978 18.6622 12.4467 17.9868 12.4467C17.3113 12.4467 16.7624 11.8978 16.7624 11.2224C16.7624 10.5491 17.3113 9.99799 17.9868 9.99799ZM23.9821 23.6139C23.9821 23.8176 23.892 24.0235 23.7355 24.1736C23.579 24.3258 23.356 24.4116 23.1265 24.4116H16.0441C15.8147 24.4116 15.5917 24.3237 15.4351 24.1736C15.2786 24.0235 15.1885 23.8176 15.1885 23.6139V21.0794L20.3154 15.9525C20.6135 15.6545 20.7829 15.2428 20.7829 14.8225V10.0302L23.7355 12.8606C23.892 13.0106 23.9821 13.2165 23.9821 13.4202V23.6139Z" fill="#13A6BA"/>
<path d="M17.9867 11.6233C18.2076 11.6233 18.3856 11.4432 18.3856 11.2245C18.3856 11.0037 18.2055 10.8257 17.9867 10.8257C17.768 10.8257 17.5879 11.0058 17.5879 11.2245C17.5858 11.4432 17.7659 11.6233 17.9867 11.6233Z" fill="#13A6BA"/>
</svg>
