<svg width="31" height="31" viewBox="0 0 31 31" fill="none" xmlns="http://www.w3.org/2000/svg">
<path d="M22.7199 11.1084C22.3389 10.6453 21.8673 10.281 21.3409 10.0326C21.362 9.85998 21.3746 9.68523 21.3746 9.51049C21.3746 7.22197 19.5135 5.36084 17.2271 5.36084C14.9407 5.36084 13.0774 7.22197 13.0774 9.51049C13.0774 10.1337 13.2185 10.7505 13.4859 11.3085C12.6458 12.5548 12.57 14.1991 13.3364 15.5234L11.05 17.8077L7.05612 21.8036C6.6561 22.2036 6.6561 22.8563 7.05612 23.2563C7.45613 23.6563 8.10879 23.6563 8.50881 23.2563L9.15094 22.6142L9.59096 23.0542C9.99098 23.4542 10.6436 23.4542 11.0437 23.0542C11.4437 22.6542 11.4437 22.0015 11.0437 21.6015L10.6036 21.1615L10.9594 20.8057L11.3995 21.2457C11.7826 21.6436 12.4711 21.6436 12.8521 21.2457C13.2501 20.8625 13.2501 20.1741 12.8521 19.793L12.4121 19.353L14.7912 16.974C15.787 17.5508 16.9934 17.6666 18.0882 17.2855C18.1576 17.315 18.2271 17.3424 18.2966 17.3698V21.8499V23.4079V24.4522C18.2966 24.528 18.3261 24.6016 18.3766 24.6585L19.4272 25.787C19.5366 25.9091 19.7451 25.9133 19.8588 25.7954L20.9978 24.6669C21.0546 24.6101 21.0862 24.5343 21.0862 24.4522V23.4563C21.0862 23.3637 21.0441 23.2753 20.9704 23.2184L20.3072 22.7047L20.9704 22.191C21.1241 22.0773 21.1241 21.8289 20.9704 21.7152L20.3072 21.2015L20.9704 20.6878C21.1241 20.5741 21.1241 20.3257 20.9704 20.212L20.3072 19.6983L20.9704 19.1846C21.0441 19.1277 21.0862 19.0393 21.0862 18.9467V17.3382C22.6105 16.7466 23.6189 15.2855 23.6189 13.6328C23.6189 13.1549 23.5347 12.6854 23.3684 12.2411C23.301 12.0601 23.2084 11.8495 23.0757 11.6243C22.9599 11.4179 22.8357 11.2474 22.7199 11.1084ZM18.9387 12.5906C18.9387 12.1885 19.265 11.8601 19.6693 11.8601C19.7345 11.8601 19.7977 11.8706 19.8588 11.8853C19.5977 12.1738 19.2903 12.4201 18.9408 12.6138C18.9408 12.6075 18.9387 12.599 18.9387 12.5906ZM19.6693 13.3212C19.4945 13.3212 19.3324 13.258 19.2082 13.1549C19.6356 12.9233 20.0103 12.6222 20.3261 12.2706C20.3746 12.3674 20.4019 12.4748 20.4019 12.5906C20.3977 12.9948 20.0714 13.3212 19.6693 13.3212ZM17.2271 5.96297C19.1829 5.96297 20.7746 7.55462 20.7746 9.51049C20.7746 9.61154 20.7704 9.7126 20.762 9.81366C20.404 9.71049 20.0314 9.65576 19.6482 9.65576C19.1914 9.65576 18.7513 9.73365 18.3429 9.87682C16.8586 9.24521 15.1175 9.57575 13.9722 10.7232C13.9532 10.7421 13.9364 10.7611 13.9175 10.78C13.7638 10.3779 13.6838 9.94629 13.6838 9.51049C13.6796 7.55462 15.2712 5.96297 17.2271 5.96297ZM14.9133 16.3424C14.7933 16.2623 14.6354 16.2792 14.5343 16.3802L11.7742 19.1404C11.6563 19.2583 11.6563 19.4477 11.7742 19.5656L12.4269 20.2183C12.5911 20.3762 12.5911 20.6604 12.4269 20.8204C12.269 20.9847 11.9847 20.9847 11.8247 20.8204L11.1721 20.1678C11.0542 20.0499 10.8647 20.0499 10.7468 20.1678L9.96571 20.9489C9.84992 21.0604 9.84992 21.2626 9.96571 21.3741L10.6184 22.0268C10.7847 22.1931 10.7847 22.4626 10.6184 22.6289C10.452 22.7953 10.1826 22.7953 10.0162 22.6289L9.36358 21.9763C9.24568 21.8584 9.0562 21.8584 8.9383 21.9763L8.08353 22.831C7.9172 22.9974 7.64772 22.9974 7.4814 22.831C7.31507 22.6647 7.31507 22.3952 7.4814 22.2289L10.9994 18.7109L13.9322 15.7781C14.0332 15.6771 14.0501 15.5171 13.9701 15.3992C13.0837 14.0686 13.2627 12.2811 14.3954 11.1485C15.2291 10.3147 16.4355 9.9884 17.5576 10.2516C17.1597 10.4979 16.8102 10.8116 16.5218 11.1779C15.987 11.2369 15.488 11.4748 15.1049 11.858C14.1806 12.7822 14.1806 14.2854 15.1049 15.2097C15.4502 15.5549 15.8817 15.7802 16.3597 15.8644C16.3976 15.9192 16.4355 15.9739 16.4776 16.0287C16.7197 16.3487 17.0102 16.6287 17.3323 16.8603C16.4965 16.9971 15.6291 16.8182 14.9133 16.3424ZM15.9491 15.0939C15.7954 15.0118 15.6565 14.9086 15.5302 14.7823C15.0649 14.317 14.9133 13.6517 15.0775 13.058C15.2712 13.1759 15.4712 13.2749 15.6817 13.3591C15.6754 13.4475 15.6733 13.538 15.6733 13.6286C15.6712 14.138 15.766 14.6328 15.9491 15.0939ZM15.7702 12.7443C15.6207 12.6769 15.4754 12.599 15.3365 12.5106C15.3933 12.4306 15.4565 12.3527 15.5302 12.2811C15.6838 12.1274 15.8649 12.0032 16.0607 11.9169C15.9344 12.178 15.8375 12.4559 15.7702 12.7443Z" fill="#13A6BA"/>
</svg>
