<svg width="29" height="31" viewBox="0 0 29 31" fill="none" xmlns="http://www.w3.org/2000/svg">
<path d="M23.2618 10.6442L23.273 11.2476C23.273 17.4437 18.7242 24.6029 10.4089 24.6029C7.86067 24.6029 5.48008 23.8255 3.47949 22.4795C3.82596 22.526 4.18361 22.5492 4.55243 22.5492C6.67596 22.5492 8.62067 21.7949 10.163 20.5302C8.18479 20.4954 6.51949 19.1378 5.93831 17.2697C6.21772 17.3277 6.49714 17.3509 6.78773 17.3509C7.20126 17.3509 7.60361 17.2929 7.97243 17.1885C5.90478 16.7591 4.35126 14.8678 4.35126 12.5936V12.5472C4.95479 12.8953 5.64772 13.1041 6.39655 13.1273C5.18949 12.2919 4.39596 10.8415 4.39596 9.22863C4.39596 8.36999 4.61949 7.55776 5.01067 6.86157C7.22361 9.70436 10.5654 11.5609 14.3207 11.7581C14.2424 11.4216 14.2089 11.0619 14.2089 10.6906C14.2089 8.10312 16.2207 6.00293 18.7242 6.00293C20.0207 6.00293 21.2054 6.57149 22.0324 7.47654C23.0495 7.26768 24.0218 6.88478 24.9048 6.35103C24.5695 7.44173 23.8542 8.36999 22.9154 8.95015C23.8318 8.83412 24.7036 8.57885 25.5195 8.20755C24.9048 9.14741 24.1336 9.98284 23.2618 10.6442Z" fill="#C8F3F9"/>
</svg>
